%FSLAX43Y43*%
%MOMM*%
G71*
G01*
G75*
%ADD10C,0.348*%
%ADD11C,0.599*%
%ADD12C,0.350*%
%ADD13C,0.600*%
%ADD14C,2.000*%
%ADD15C,2.500*%
%ADD16C,1.800*%
%ADD17R,1.800X1.800*%
%ADD18C,3.000*%
%ADD19R,1.700X1.700*%
%ADD20C,1.700*%
%ADD21C,1.600*%
%ADD22R,1.900X1.900*%
%ADD23C,1.900*%
%ADD24R,1.700X1.700*%
%ADD25R,1.800X1.800*%
%ADD26R,2.000X2.000*%
%ADD27C,1.500*%
%ADD28C,1.400*%
%ADD29C,1.575*%
%ADD30C,1.100*%
%ADD31C,1.100*%
%ADD32R,1.600X1.300*%
%ADD33R,1.300X1.600*%
%ADD34R,1.600X1.200*%
%ADD35O,0.750X2.500*%
%ADD36R,0.750X2.500*%
%ADD37O,2.500X0.750*%
%ADD38R,2.500X0.750*%
%ADD39R,0.500X1.500*%
%ADD40R,1.500X0.500*%
%ADD41O,0.500X1.500*%
%ADD42O,2.000X0.750*%
%ADD43R,2.000X0.750*%
%ADD44C,0.381*%
%ADD45C,0.500*%
D14*
X6240Y-3040D02*
D03*
X94240D02*
D03*
X6240Y61960D02*
D03*
X94240D02*
D03*
X70100Y37130D02*
D03*
X70100Y39670D02*
D03*
X51300Y38400D02*
D03*
X140000Y15380D02*
D03*
X43540Y63000D02*
D03*
X38460D02*
D03*
D15*
X108650Y41460D02*
D03*
X121350D02*
D03*
X108650Y27460D02*
D03*
X121350Y27460D02*
D03*
X108650Y13460D02*
D03*
X121350Y13460D02*
D03*
X108650Y-540D02*
D03*
X121350Y-540D02*
D03*
X108650Y46540D02*
D03*
X121350Y46540D02*
D03*
X108650Y32540D02*
D03*
X121350D02*
D03*
X108650Y18540D02*
D03*
X121350D02*
D03*
X108650Y4540D02*
D03*
X121350D02*
D03*
X28300Y40000D02*
D03*
X15600D02*
D03*
X121350Y60540D02*
D03*
X108650Y60540D02*
D03*
X121350Y55460D02*
D03*
X108650D02*
D03*
D16*
X30440Y-3000D02*
D03*
X27900D02*
D03*
X50760D02*
D03*
X48220D02*
D03*
X45680D02*
D03*
X43140D02*
D03*
X40600D02*
D03*
X38060D02*
D03*
X35520D02*
D03*
X32980D02*
D03*
X58380D02*
D03*
X53300D02*
D03*
X17740D02*
D03*
X20280D02*
D03*
X25360D02*
D03*
X55840D02*
D03*
X63460D02*
D03*
X22820D02*
D03*
X60920D02*
D03*
X62000Y9000D02*
D03*
X59460Y6460D02*
D03*
X62000Y3920D02*
D03*
X15840Y48000D02*
D03*
X-11000Y49460D02*
D03*
X-7460Y33080D02*
D03*
X-10000Y33080D02*
D03*
X-7460Y28000D02*
D03*
Y35620D02*
D03*
X-10000D02*
D03*
X-7460Y30540D02*
D03*
X-10000D02*
D03*
X-10000Y38160D02*
D03*
X-7460Y38160D02*
D03*
D17*
X66000Y-3000D02*
D03*
X26000Y48000D02*
D03*
D18*
X0Y0D02*
D03*
Y60000D02*
D03*
X130000D02*
D03*
Y0D02*
D03*
D19*
X6000Y41000D02*
D03*
D20*
X920D02*
D03*
X140000Y47460D02*
D03*
X140000Y44920D02*
D03*
Y42380D02*
D03*
Y39840D02*
D03*
Y37300D02*
D03*
X-10000Y15080D02*
D03*
Y20160D02*
D03*
Y17620D02*
D03*
Y12540D02*
D03*
Y22700D02*
D03*
X33000Y46920D02*
D03*
D21*
Y40000D02*
D03*
X38080D02*
D03*
D22*
X-5000Y52000D02*
D03*
D23*
X2620Y52000D02*
D03*
D24*
X140000Y50000D02*
D03*
X-10000Y10000D02*
D03*
X33000Y52000D02*
D03*
D25*
X-11000Y52000D02*
D03*
X-10000Y28000D02*
D03*
D26*
X140000Y23000D02*
D03*
D27*
X20000Y59000D02*
D03*
X20000Y51380D02*
D03*
X12700Y1600D02*
D03*
X20320D02*
D03*
D28*
X56500Y21800D02*
D03*
Y23800D02*
D03*
D29*
X35480Y28600D02*
D03*
X30400D02*
D03*
M02*
