%FSLAX43Y43*%
%MOMM*%
G71*
G01*
G75*
G04 Layer_Color=2752767*
%ADD10C,0.348*%
%ADD11C,0.599*%
%ADD12C,0.350*%
%ADD13C,0.600*%
%ADD14C,2.000*%
%ADD15C,2.500*%
%ADD16C,1.800*%
%ADD17R,1.800X1.800*%
%ADD18C,3.000*%
%ADD19R,1.700X1.700*%
%ADD20C,1.700*%
%ADD21C,1.600*%
%ADD22R,1.900X1.900*%
%ADD23C,1.900*%
%ADD24R,1.700X1.700*%
%ADD25R,1.800X1.800*%
%ADD26R,2.000X2.000*%
%ADD27C,1.500*%
%ADD28C,1.400*%
%ADD29C,1.575*%
%ADD30C,1.100*%
%ADD31C,1.100*%
%ADD32R,1.600X1.300*%
%ADD33R,1.300X1.600*%
%ADD34R,1.600X1.200*%
%ADD35O,0.750X2.500*%
%ADD36R,0.750X2.500*%
%ADD37O,2.500X0.750*%
%ADD38R,2.500X0.750*%
%ADD39R,0.500X1.500*%
%ADD40R,1.500X0.500*%
%ADD41O,0.500X1.500*%
%ADD42O,2.000X0.750*%
%ADD43R,2.000X0.750*%
%ADD44C,0.381*%
%ADD45C,0.500*%
%ADD46C,0.254*%
%ADD47C,0.127*%
%ADD48C,0.420*%
%ADD49C,2.203*%
%ADD50C,2.703*%
%ADD51C,2.003*%
%ADD52R,2.003X2.003*%
%ADD53C,3.203*%
%ADD54R,1.903X1.903*%
%ADD55C,1.903*%
%ADD56C,1.803*%
%ADD57R,2.103X2.103*%
%ADD58C,2.103*%
%ADD59R,1.903X1.903*%
%ADD60R,2.003X2.003*%
%ADD61R,2.203X2.203*%
%ADD62C,1.703*%
%ADD63C,1.603*%
%ADD64C,1.778*%
%ADD65R,1.803X1.503*%
%ADD66R,1.503X1.803*%
%ADD67R,1.803X1.403*%
%ADD68O,0.953X2.703*%
%ADD69R,0.953X2.703*%
%ADD70O,2.703X0.953*%
%ADD71R,2.703X0.953*%
%ADD72R,0.703X1.703*%
%ADD73R,1.703X0.703*%
%ADD74O,0.703X1.703*%
%ADD75O,2.203X0.953*%
%ADD76R,2.203X0.953*%
%ADD77C,0.200*%
%ADD78C,0.305*%
%ADD79C,0.380*%
%ADD80C,0.169*%
%ADD81C,0.102*%
D47*
X5732Y-3548D02*
Y-2532D01*
X6748D01*
Y-3548D01*
X5732D01*
X93732D02*
Y-2532D01*
X94748D01*
Y-3548D01*
X93732D01*
X5732Y61452D02*
Y62468D01*
X6748D01*
Y61452D01*
X5732D01*
X93732D02*
Y62468D01*
X94748D01*
Y61452D01*
X93732D01*
X30440Y-3508D02*
X29932Y-2492D01*
X30948D01*
X30440Y-3508D01*
X27900D02*
X27392Y-2492D01*
X28408D01*
X27900Y-3508D01*
X50760D02*
X50252Y-2492D01*
X51268D01*
X50760Y-3508D01*
X48220D02*
X47712Y-2492D01*
X48728D01*
X48220Y-3508D01*
X45680D02*
X45172Y-2492D01*
X46188D01*
X45680Y-3508D01*
X43140D02*
X42632Y-2492D01*
X43648D01*
X43140Y-3508D01*
X40600D02*
X40092Y-2492D01*
X41108D01*
X40600Y-3508D01*
X38060D02*
X37552Y-2492D01*
X38568D01*
X38060Y-3508D01*
X35520D02*
X35012Y-2492D01*
X36028D01*
X35520Y-3508D01*
X32980D02*
X32472Y-2492D01*
X33488D01*
X32980Y-3508D01*
X58380D02*
X57872Y-2492D01*
X58888D01*
X58380Y-3508D01*
X53300D02*
X52792Y-2492D01*
X53808D01*
X53300Y-3508D01*
X66000D02*
X65492Y-2492D01*
X66508D01*
X66000Y-3508D01*
X17740D02*
X17232Y-2492D01*
X18248D01*
X17740Y-3508D01*
X20280D02*
X19772Y-2492D01*
X20788D01*
X20280Y-3508D01*
X25360D02*
X24852Y-2492D01*
X25868D01*
X25360Y-3508D01*
X55840D02*
X55332Y-2492D01*
X56348D01*
X55840Y-3508D01*
X63460D02*
X62952Y-2492D01*
X63968D01*
X63460Y-3508D01*
X22820D02*
X22312Y-2492D01*
X23328D01*
X22820Y-3508D01*
X60920D02*
X60412Y-2492D01*
X61428D01*
X60920Y-3508D01*
X0Y-508D02*
X254Y-254D01*
X508D01*
X254Y0D01*
X508Y254D01*
X254D01*
X0Y508D01*
X-254Y254D01*
X-508D01*
X-254Y0D01*
X-508Y-254D01*
X-254D01*
X0Y-508D01*
Y59492D02*
X254Y59746D01*
X508D01*
X254Y60000D01*
X508Y60254D01*
X254D01*
X0Y60508D01*
X-254Y60254D01*
X-508D01*
X-254Y60000D01*
X-508Y59746D01*
X-254D01*
X0Y59492D01*
X130000D02*
X130254Y59746D01*
X130508D01*
X130254Y60000D01*
X130508Y60254D01*
X130254D01*
X130000Y60508D01*
X129746Y60254D01*
X129492D01*
X129746Y60000D01*
X129492Y59746D01*
X129746D01*
X130000Y59492D01*
Y-508D02*
X130254Y-254D01*
X130508D01*
X130254Y0D01*
X130508Y254D01*
X130254D01*
X130000Y508D01*
X129746Y254D01*
X129492D01*
X129746Y0D01*
X129492Y-254D01*
X129746D01*
X130000Y-508D01*
X62000Y8492D02*
X61492Y9508D01*
X62508D01*
X62000Y8492D01*
X59460Y5952D02*
X58952Y6968D01*
X59968D01*
X59460Y5952D01*
X62000Y3412D02*
X61492Y4428D01*
X62508D01*
X62000Y3412D01*
X69592Y36622D02*
X69846Y37130D01*
X69592Y37638D01*
X70100Y37384D01*
X70608Y37638D01*
X70354Y37130D01*
X70608Y36622D01*
X70100Y36876D01*
X69592Y36622D01*
X69592Y39162D02*
X69846Y39670D01*
X69592Y40178D01*
X70100Y39924D01*
X70608Y40178D01*
X70354Y39670D01*
X70608Y39162D01*
X70100Y39416D01*
X69592Y39162D01*
X50792Y37892D02*
X51046Y38400D01*
X50792Y38908D01*
X51300Y38654D01*
X51808Y38908D01*
X51554Y38400D01*
X51808Y37892D01*
X51300Y38146D01*
X50792Y37892D01*
X5746Y40746D02*
Y40492D01*
X6254D01*
Y40746D01*
X6508D01*
Y41254D01*
X6254D01*
Y41508D01*
X5746D01*
Y41254D01*
X5492D01*
Y40746D01*
X5746D01*
X666D02*
Y40492D01*
X1174D01*
Y40746D01*
X1428D01*
Y41254D01*
X1174D01*
Y41508D01*
X666D01*
Y41254D01*
X412D01*
Y40746D01*
X666D01*
X32746Y39746D02*
Y39492D01*
X33254D01*
Y39746D01*
X33508D01*
Y40254D01*
X33254D01*
Y40508D01*
X32746D01*
Y40254D01*
X32492D01*
Y39746D01*
X32746D01*
X37826D02*
Y39492D01*
X38334D01*
Y39746D01*
X38588D01*
Y40254D01*
X38334D01*
Y40508D01*
X37826D01*
Y40254D01*
X37572D01*
Y39746D01*
X37826D01*
X-5508Y51492D02*
X-5254Y52000D01*
X-5508Y52508D01*
X-5000Y52254D01*
X-4492Y52508D01*
X-4746Y52000D01*
X-4492Y51492D01*
X-5000Y51746D01*
X-5508Y51492D01*
X2112Y51492D02*
X2366Y52000D01*
X2112Y52508D01*
X2620Y52254D01*
X3128Y52508D01*
X2874Y52000D01*
X3128Y51492D01*
X2620Y51746D01*
X2112Y51492D01*
X15840Y47492D02*
X15332Y48508D01*
X16348D01*
X15840Y47492D01*
X26000D02*
X25492Y48508D01*
X26508D01*
X26000Y47492D01*
X140000Y46952D02*
X139492Y47968D01*
X140508D01*
X140000Y46952D01*
X140000Y49492D02*
X139492Y50508D01*
X140508D01*
X140000Y49492D01*
Y44412D02*
X139492Y45428D01*
X140508D01*
X140000Y44412D01*
Y41872D02*
X139492Y42888D01*
X140508D01*
X140000Y41872D01*
Y39332D02*
X139492Y40348D01*
X140508D01*
X140000Y39332D01*
Y36792D02*
X139492Y37808D01*
X140508D01*
X140000Y36792D01*
X-10000Y14572D02*
X-10508Y15588D01*
X-9492D01*
X-10000Y14572D01*
Y19652D02*
X-10508Y20668D01*
X-9492D01*
X-10000Y19652D01*
Y17112D02*
X-10508Y18128D01*
X-9492D01*
X-10000Y17112D01*
Y12032D02*
X-10508Y13048D01*
X-9492D01*
X-10000Y12032D01*
Y9492D02*
X-10508Y10508D01*
X-9492D01*
X-10000Y9492D01*
Y22192D02*
X-10508Y23208D01*
X-9492D01*
X-10000Y22192D01*
X-11000Y51492D02*
X-11508Y52508D01*
X-10492D01*
X-11000Y51492D01*
X-11000Y48952D02*
X-11508Y49968D01*
X-10492D01*
X-11000Y48952D01*
X139492Y22492D02*
X139746Y23000D01*
X139492Y23508D01*
X140000Y23254D01*
X140508Y23508D01*
X140254Y23000D01*
X140508Y22492D01*
X140000Y22746D01*
X139492Y22492D01*
X139492Y14872D02*
X139746Y15380D01*
X139492Y15888D01*
X140000Y15634D01*
X140508Y15888D01*
X140254Y15380D01*
X140508Y14872D01*
X140000Y15126D01*
X139492Y14872D01*
X-7460Y32572D02*
X-7968Y33588D01*
X-6952D01*
X-7460Y32572D01*
X-10000Y32572D02*
X-10508Y33588D01*
X-9492D01*
X-10000Y32572D01*
X-7460Y27492D02*
X-7968Y28508D01*
X-6952D01*
X-7460Y27492D01*
X-10000Y27492D02*
X-10508Y28508D01*
X-9492D01*
X-10000Y27492D01*
X-7460Y35112D02*
X-7968Y36128D01*
X-6952D01*
X-7460Y35112D01*
X-10000D02*
X-10508Y36128D01*
X-9492D01*
X-10000Y35112D01*
X-7460Y30032D02*
X-7968Y31048D01*
X-6952D01*
X-7460Y30032D01*
X-10000D02*
X-10508Y31048D01*
X-9492D01*
X-10000Y30032D01*
X-10000Y37652D02*
X-10508Y38668D01*
X-9492D01*
X-10000Y37652D01*
X-7460Y37652D02*
X-7968Y38668D01*
X-6952D01*
X-7460Y37652D01*
X27792Y39492D02*
X28046D01*
X28300Y39746D01*
X28554Y39492D01*
X28808D01*
Y39746D01*
X28554Y40000D01*
X28808Y40254D01*
Y40508D01*
X28554D01*
X28300Y40254D01*
X28046Y40508D01*
X27792D01*
Y40254D01*
X28046Y40000D01*
X27792Y39746D01*
Y39492D01*
X15092D02*
X15346D01*
X15600Y39746D01*
X15854Y39492D01*
X16108D01*
Y39746D01*
X15854Y40000D01*
X16108Y40254D01*
Y40508D01*
X15854D01*
X15600Y40254D01*
X15346Y40508D01*
X15092D01*
Y40254D01*
X15346Y40000D01*
X15092Y39746D01*
Y39492D01*
X19492Y59000D02*
X20000Y59508D01*
X20508Y59000D01*
X20000Y58492D01*
X19492Y59000D01*
X19492Y51380D02*
X20000Y51888D01*
X20508Y51380D01*
X20000Y50872D01*
X19492Y51380D01*
X12192Y1600D02*
X12700Y2108D01*
X13208Y1600D01*
X12700Y1092D01*
X12192Y1600D01*
X19812D02*
X20320Y2108D01*
X20828Y1600D01*
X20320Y1092D01*
X19812Y1600D01*
X43540Y62492D02*
X43032Y63508D01*
X44048D01*
X43540Y62492D01*
X38460D02*
X37952Y63508D01*
X38968D01*
X38460Y62492D01*
X55992Y21292D02*
Y22308D01*
X57008D01*
Y21292D01*
X55992D01*
X56195Y21495D02*
Y22105D01*
X56805D01*
Y21495D01*
X56195D01*
X55992Y23292D02*
Y24308D01*
X57008D01*
Y23292D01*
X55992D01*
X56195Y23495D02*
Y24105D01*
X56805D01*
Y23495D01*
X56195D01*
X34972Y28600D02*
X35480Y29108D01*
X35988Y28600D01*
X35480Y28092D01*
X34972Y28600D01*
X29892D02*
X30400Y29108D01*
X30908Y28600D01*
X30400Y28092D01*
X29892Y28600D01*
X32746Y51746D02*
Y51492D01*
X33254D01*
Y51746D01*
X33508D01*
Y52254D01*
X33254D01*
Y52508D01*
X32746D01*
Y52254D01*
X32492D01*
Y51746D01*
X32746D01*
Y46666D02*
Y46412D01*
X33254D01*
Y46666D01*
X33508D01*
Y47174D01*
X33254D01*
Y47428D01*
X32746D01*
Y47174D01*
X32492D01*
Y46666D01*
X32746D01*
D80*
X109158Y41460D02*
G03*
X109158Y41460I-508J0D01*
G01*
X121858D02*
G03*
X121858Y41460I-508J0D01*
G01*
X109158Y27460D02*
G03*
X109158Y27460I-508J0D01*
G01*
X121858Y27460D02*
G03*
X121858Y27460I-508J0D01*
G01*
X109158Y13460D02*
G03*
X109158Y13460I-508J0D01*
G01*
X121858Y13460D02*
G03*
X121858Y13460I-508J0D01*
G01*
X109158Y-540D02*
G03*
X109158Y-540I-508J0D01*
G01*
X121858Y-540D02*
G03*
X121858Y-540I-508J0D01*
G01*
X109158Y46540D02*
G03*
X109158Y46540I-508J0D01*
G01*
X121858Y46540D02*
G03*
X121858Y46540I-508J0D01*
G01*
X109158Y32540D02*
G03*
X109158Y32540I-508J0D01*
G01*
X121858D02*
G03*
X121858Y32540I-508J0D01*
G01*
X109158Y18540D02*
G03*
X109158Y18540I-508J0D01*
G01*
X121858D02*
G03*
X121858Y18540I-508J0D01*
G01*
X109158Y4540D02*
G03*
X109158Y4540I-508J0D01*
G01*
X121858D02*
G03*
X121858Y4540I-508J0D01*
G01*
X121858Y60540D02*
G03*
X121858Y60540I-508J0D01*
G01*
X109158Y60540D02*
G03*
X109158Y60540I-508J0D01*
G01*
X121858Y55460D02*
G03*
X121858Y55460I-508J0D01*
G01*
X109158D02*
G03*
X109158Y55460I-508J0D01*
G01*
X14984Y-2992D02*
G03*
X14984Y-2992I-508J0D01*
G01*
X9396Y12248D02*
G03*
X9396Y12248I-508J0D01*
G01*
X16000Y15296D02*
G03*
X16000Y15296I-508J0D01*
G01*
X29437Y18852D02*
G03*
X29437Y18852I-508J0D01*
G01*
X45464Y23932D02*
G03*
X45464Y23932I-508J0D01*
G01*
X8380Y22408D02*
G03*
X8380Y22408I-508J0D01*
G01*
X43915Y17811D02*
G03*
X43915Y17811I-508J0D01*
G01*
X31240Y18852D02*
G03*
X31240Y18852I-508J0D01*
G01*
X42924Y32568D02*
G03*
X42924Y32568I-508J0D01*
G01*
X58164Y-452D02*
G03*
X58164Y-452I-508J0D01*
G01*
X28192Y16820D02*
G03*
X28192Y16820I-508J0D01*
G01*
X33272Y18344D02*
G03*
X33272Y18344I-508J0D01*
G01*
X35812Y24948D02*
G03*
X35812Y24948I-508J0D01*
G01*
X8888Y17836D02*
G03*
X8888Y17836I-508J0D01*
G01*
X14984Y30028D02*
G03*
X14984Y30028I-508J0D01*
G01*
X37336D02*
G03*
X37336Y30028I-508J0D01*
G01*
X34796Y26472D02*
G03*
X34796Y26472I-508J0D01*
G01*
X18540D02*
G03*
X18540Y26472I-508J0D01*
G01*
X-4828Y22916D02*
G03*
X-4828Y22916I-508J0D01*
G01*
X42670Y6660D02*
G03*
X42670Y6660I-508J0D01*
G01*
X28192Y9708D02*
G03*
X28192Y9708I-508J0D01*
G01*
X23808Y14800D02*
G03*
X23808Y14800I-508J0D01*
G01*
X24108Y13300D02*
G03*
X24108Y13300I-508J0D01*
G01*
X24708Y11700D02*
G03*
X24708Y11700I-508J0D01*
G01*
X29108Y15600D02*
G03*
X29108Y15600I-508J0D01*
G01*
D81*
X14781Y-2992D02*
G03*
X14781Y-2992I-305J0D01*
G01*
X9193Y12248D02*
G03*
X9193Y12248I-305J0D01*
G01*
X15797Y15296D02*
G03*
X15797Y15296I-305J0D01*
G01*
X29233Y18852D02*
G03*
X29233Y18852I-305J0D01*
G01*
X45261Y23932D02*
G03*
X45261Y23932I-305J0D01*
G01*
X8177Y22408D02*
G03*
X8177Y22408I-305J0D01*
G01*
X43711Y17811D02*
G03*
X43711Y17811I-305J0D01*
G01*
X31037Y18852D02*
G03*
X31037Y18852I-305J0D01*
G01*
X42721Y32568D02*
G03*
X42721Y32568I-305J0D01*
G01*
X57961Y-452D02*
G03*
X57961Y-452I-305J0D01*
G01*
X27989Y16820D02*
G03*
X27989Y16820I-305J0D01*
G01*
X33069Y18344D02*
G03*
X33069Y18344I-305J0D01*
G01*
X35609Y24948D02*
G03*
X35609Y24948I-305J0D01*
G01*
X8685Y17836D02*
G03*
X8685Y17836I-305J0D01*
G01*
X14781Y30028D02*
G03*
X14781Y30028I-305J0D01*
G01*
X37133D02*
G03*
X37133Y30028I-305J0D01*
G01*
X34593Y26472D02*
G03*
X34593Y26472I-305J0D01*
G01*
X18337D02*
G03*
X18337Y26472I-305J0D01*
G01*
X-5031Y22916D02*
G03*
X-5031Y22916I-305J0D01*
G01*
X42467Y6660D02*
G03*
X42467Y6660I-305J0D01*
G01*
X27989Y9708D02*
G03*
X27989Y9708I-305J0D01*
G01*
X23605Y14800D02*
G03*
X23605Y14800I-305J0D01*
G01*
X23905Y13300D02*
G03*
X23905Y13300I-305J0D01*
G01*
X24505Y11700D02*
G03*
X24505Y11700I-305J0D01*
G01*
X28905Y15600D02*
G03*
X28905Y15600I-305J0D01*
G01*
M02*
