M48
;Layer_Color=9474304
;FILE_FORMAT=4:3
METRIC,LZ
;TYPE=PLATED
T1F00S00C0.600
T2F00S00C0.700
T3F00S00C0.800
T4F00S00C0.900
T5F00S00C1.000
T6F00S00C1.100
T7F00S00C1.200
T8F00S00C1.300
T9F00S00C3.000
T10F00S00C3.500
%
T01
X00242Y00117
X0027684Y0009708
X00286Y00156
X0027684Y001682
X0028929Y0018852
X0030732
X0032764Y0018344
X0035304Y0024948
X0034288Y0026472
X0036828Y0030028
X0042416Y0032568
X0044956Y0023932
X0043407Y0017811
X0042162Y000666
X0057656Y-0000452
X0014476Y-0002992
X0015492Y0015296
X00233Y00148
X00236Y00133
X0008888Y0012248
X000838Y0017836
X0007872Y0022408
X-0005336Y0022916
X0014476Y0030028
X0018032Y0026472
T02
X00565Y00218
Y00238
T03
X00304Y00286
X003548
X002032Y00016
X00127
X002Y005138
X002Y0059
T04
X000092Y0041
X0006
X0033Y004
X003808
X0033Y004692
Y0052
T05
X0066Y-0003
X006346
X006092
X005838
X005584
X00533
X005076
X004822
X004568
X004314
X00406
X003806
X003552
X003298
X003044
X00279
X002536
X0062Y000392
Y0009
X005946Y000646
X002282Y-0003
X002028
X001774
X-001Y001
Y001254
Y001508
Y001762
Y002016
Y00227
Y0028
X-001Y003054
X-000746
X-000746Y003308
X-001Y003308
X-000746Y0028
Y003562
X-001
X-001Y003816
X-000746Y003816
X-0011Y004946
X-0011Y0052
X001584Y0048
X0026
X003846Y0063
X004354
X014Y005
X014Y004746
X014Y004492
Y004238
Y003984
Y00373
T06
X014Y001538
X014Y0023
X000262Y0052
X-0005Y0052
X00513Y00384
X00701Y003713
X00701Y003967
T07
X010865Y-000054
Y000454
Y001346
Y001854
Y002746
Y003254
X012135
X012135Y002746
X012135Y001854
X012135Y001346
X012135Y000454
X012135Y-000054
X012135Y004146
X012135Y004654
X012135Y005546
X012135Y006054
X010865Y006054
Y005546
Y004654
Y004146
T08
X00156Y004
X00283
T09
X009424Y-000304
X000624
Y006196
X009424
T10
X013Y0
X0
Y006
X013
M30
