%FSLAX43Y43*%
%MOMM*%
G71*
G01*
G75*
G04 Layer_Color=32896*
%ADD10C,0.348*%
%ADD11C,0.599*%
%ADD12C,0.350*%
%ADD13C,0.600*%
%ADD14C,2.000*%
%ADD15C,2.500*%
%ADD16C,1.800*%
%ADD17R,1.800X1.800*%
%ADD18C,3.000*%
%ADD19R,1.700X1.700*%
%ADD20C,1.700*%
%ADD21C,1.600*%
%ADD22R,1.900X1.900*%
%ADD23C,1.900*%
%ADD24R,1.700X1.700*%
%ADD25R,1.800X1.800*%
%ADD26R,2.000X2.000*%
%ADD27C,1.500*%
%ADD28C,1.400*%
%ADD29C,1.575*%
%ADD30C,1.100*%
%ADD31C,1.100*%
%ADD32R,1.600X1.300*%
%ADD33R,1.300X1.600*%
%ADD34R,1.600X1.200*%
%ADD35O,0.750X2.500*%
%ADD36R,0.750X2.500*%
%ADD37O,2.500X0.750*%
%ADD38R,2.500X0.750*%
%ADD39R,0.500X1.500*%
%ADD40R,1.500X0.500*%
%ADD41O,0.500X1.500*%
%ADD42O,2.000X0.750*%
%ADD43R,2.000X0.750*%
%ADD44C,0.381*%
%ADD45C,0.500*%
%ADD46C,0.254*%
%ADD47C,0.127*%
%ADD48C,0.420*%
%ADD49C,2.203*%
%ADD50C,2.703*%
%ADD51C,2.003*%
%ADD52R,2.003X2.003*%
%ADD53C,3.203*%
%ADD54R,1.903X1.903*%
%ADD55C,1.903*%
%ADD56C,1.803*%
%ADD57R,2.103X2.103*%
%ADD58C,2.103*%
%ADD59R,1.903X1.903*%
%ADD60R,2.003X2.003*%
%ADD61R,2.203X2.203*%
%ADD62C,1.703*%
%ADD63C,1.603*%
%ADD64C,1.778*%
%ADD65R,1.803X1.503*%
%ADD66R,1.503X1.803*%
%ADD67R,1.803X1.403*%
%ADD68O,0.953X2.703*%
%ADD69R,0.953X2.703*%
%ADD70O,2.703X0.953*%
%ADD71R,2.703X0.953*%
%ADD72R,0.703X1.703*%
%ADD73R,1.703X0.703*%
%ADD74O,0.703X1.703*%
%ADD75O,2.203X0.953*%
%ADD76R,2.203X0.953*%
%ADD77C,0.200*%
%ADD78C,0.305*%
%ADD79C,0.380*%
D46*
X67501Y38400D02*
G03*
X67501Y38400I-6801J0D01*
G01*
X146000Y19190D02*
G03*
X146000Y19190I-6000J0D01*
G01*
X25435Y40000D02*
G03*
X25435Y40000I-3635J0D01*
G01*
X42954Y63020D02*
G03*
X42954Y63020I-2000J0D01*
G01*
X50316Y35407D02*
X52306Y35407D01*
X68806Y33757D02*
X70806Y33757D01*
X69806Y32757D02*
Y34757D01*
X49400Y40400D02*
X54300D01*
X66800Y35400D02*
X72000D01*
X72300Y35700D01*
Y41300D01*
X72200Y41400D02*
X72300Y41300D01*
X66700Y41400D02*
X72200Y41400D01*
X49500Y36500D02*
X54200Y36500D01*
X49200Y36800D02*
X49500Y36500D01*
X49200Y36800D02*
Y40200D01*
X49400Y40400D01*
X141270Y36030D02*
Y51270D01*
X138730Y36030D02*
X141270Y36030D01*
X138730Y51270D02*
X138730Y36030D01*
X138730Y51270D02*
X141270D01*
X138730Y48730D02*
X141270Y48730D01*
X-11270Y8730D02*
Y23970D01*
X-8730D01*
Y8730D02*
Y23970D01*
X-11270Y8730D02*
X-8730D01*
X-11270Y11270D02*
X-8730D01*
X-12270Y50730D02*
X-9730Y50730D01*
X-12270Y53270D02*
X-9730Y53270D01*
X-12270Y48190D02*
X-12270Y53270D01*
X-12270Y48190D02*
X-9730D01*
Y53270D01*
X39740Y59820D02*
X41930D01*
X39680Y66190D02*
X41960D01*
X37970Y60990D02*
Y64820D01*
X43970Y60820D02*
Y64820D01*
X55500Y20800D02*
Y24800D01*
X55600Y24900D01*
X64500Y24900D01*
X64500Y20800D02*
X64500Y24900D01*
X55500Y20800D02*
X64500Y20800D01*
X57500D02*
X57500Y24800D01*
X49319Y26640D02*
Y28164D01*
X50081D01*
X50334Y27910D01*
Y27656D01*
X50081Y27402D01*
X49319D01*
X50081D01*
X50334Y27148D01*
Y26894D01*
X50081Y26640D01*
X49319D01*
X50842D02*
X51858D01*
X51350D01*
Y28164D01*
X52366D02*
X52874D01*
X52620D01*
Y26640D01*
X52366Y26894D01*
X116664Y57314D02*
X116918Y57060D01*
Y56552D01*
X116664Y56298D01*
X115648D01*
X115394Y56552D01*
Y57060D01*
X115648Y57314D01*
X115394Y57822D02*
Y58330D01*
Y58076D01*
X116918D01*
X116664Y57822D01*
Y43314D02*
X116918Y43060D01*
Y42552D01*
X116664Y42298D01*
X115648D01*
X115394Y42552D01*
Y43060D01*
X115648Y43314D01*
X115394Y44837D02*
Y43822D01*
X116410Y44837D01*
X116664D01*
X116918Y44583D01*
Y44076D01*
X116664Y43822D01*
Y29314D02*
X116918Y29060D01*
Y28552D01*
X116664Y28298D01*
X115648D01*
X115394Y28552D01*
Y29060D01*
X115648Y29314D01*
X116664Y29822D02*
X116918Y30076D01*
Y30583D01*
X116664Y30837D01*
X116410D01*
X116156Y30583D01*
Y30330D01*
Y30583D01*
X115902Y30837D01*
X115648D01*
X115394Y30583D01*
Y30076D01*
X115648Y29822D01*
X116664Y15314D02*
X116918Y15060D01*
Y14552D01*
X116664Y14298D01*
X115648D01*
X115394Y14552D01*
Y15060D01*
X115648Y15314D01*
X115394Y16583D02*
X116918D01*
X116156Y15822D01*
Y16837D01*
X116664Y1314D02*
X116918Y1060D01*
Y552D01*
X116664Y298D01*
X115648D01*
X115394Y552D01*
Y1060D01*
X115648Y1314D01*
X116918Y2837D02*
Y1822D01*
X116156D01*
X116410Y2330D01*
Y2583D01*
X116156Y2837D01*
X115648D01*
X115394Y2583D01*
Y2076D01*
X115648Y1822D01*
X35336Y57686D02*
X35082Y57940D01*
Y58448D01*
X35336Y58702D01*
X36352D01*
X36606Y58448D01*
Y57940D01*
X36352Y57686D01*
X35082Y56163D02*
X35336Y56670D01*
X35844Y57178D01*
X36352D01*
X36606Y56924D01*
Y56417D01*
X36352Y56163D01*
X36098D01*
X35844Y56417D01*
Y57178D01*
X7372Y50753D02*
X7626Y51007D01*
X8134D01*
X8388Y50753D01*
Y49738D01*
X8134Y49484D01*
X7626D01*
X7372Y49738D01*
X6864Y51007D02*
X5848D01*
Y50753D01*
X6864Y49738D01*
Y49484D01*
X23247Y53372D02*
X22993Y53626D01*
Y54134D01*
X23247Y54388D01*
X24262D01*
X24516Y54134D01*
Y53626D01*
X24262Y53372D01*
X23247Y52864D02*
X22993Y52610D01*
Y52102D01*
X23247Y51848D01*
X23501D01*
X23755Y52102D01*
X24009Y51848D01*
X24262D01*
X24516Y52102D01*
Y52610D01*
X24262Y52864D01*
X24009D01*
X23755Y52610D01*
X23501Y52864D01*
X23247D01*
X23755Y52610D02*
Y52102D01*
X32873Y34031D02*
X32619Y33777D01*
X32111D01*
X31857Y34031D01*
Y35047D01*
X32111Y35301D01*
X32619D01*
X32873Y35047D01*
X33381D02*
X33634Y35301D01*
X34142D01*
X34396Y35047D01*
Y34031D01*
X34142Y33777D01*
X33634D01*
X33381Y34031D01*
Y34285D01*
X33634Y34539D01*
X34396D01*
X-7664Y15186D02*
X-7918Y15440D01*
Y15948D01*
X-7664Y16202D01*
X-6648D01*
X-6394Y15948D01*
Y15440D01*
X-6648Y15186D01*
X-6394Y14678D02*
Y14170D01*
Y14424D01*
X-7918D01*
X-7664Y14678D01*
Y13409D02*
X-7918Y13155D01*
Y12647D01*
X-7664Y12393D01*
X-6648D01*
X-6394Y12647D01*
Y13155D01*
X-6648Y13409D01*
X-7664D01*
X5614Y5636D02*
X5360Y5382D01*
X4852D01*
X4598Y5636D01*
Y6652D01*
X4852Y6906D01*
X5360D01*
X5614Y6652D01*
X6122Y6906D02*
X6630D01*
X6376D01*
Y5382D01*
X6122Y5636D01*
X7391Y6906D02*
X7899D01*
X7645D01*
Y5382D01*
X7391Y5636D01*
X3764Y22814D02*
X4018Y22560D01*
Y22052D01*
X3764Y21798D01*
X2748D01*
X2494Y22052D01*
Y22560D01*
X2748Y22814D01*
X2494Y23322D02*
Y23830D01*
Y23576D01*
X4018D01*
X3764Y23322D01*
X2494Y25607D02*
Y24591D01*
X3510Y25607D01*
X3764D01*
X4018Y25353D01*
Y24845D01*
X3764Y24591D01*
X-7564Y19786D02*
X-7818Y20040D01*
Y20548D01*
X-7564Y20802D01*
X-6548D01*
X-6294Y20548D01*
Y20040D01*
X-6548Y19786D01*
X-6294Y19278D02*
Y18770D01*
Y19024D01*
X-7818D01*
X-7564Y19278D01*
Y18009D02*
X-7818Y17755D01*
Y17247D01*
X-7564Y16993D01*
X-7310D01*
X-7056Y17247D01*
Y17501D01*
Y17247D01*
X-6802Y16993D01*
X-6548D01*
X-6294Y17247D01*
Y17755D01*
X-6548Y18009D01*
X24636Y33686D02*
X24382Y33940D01*
Y34448D01*
X24636Y34702D01*
X25652D01*
X25906Y34448D01*
Y33940D01*
X25652Y33686D01*
X25906Y33178D02*
Y32670D01*
Y32924D01*
X24382D01*
X24636Y33178D01*
X25906Y31147D02*
X24382D01*
X25144Y31909D01*
Y30893D01*
X29736Y33486D02*
X29482Y33740D01*
Y34248D01*
X29736Y34502D01*
X30752D01*
X31006Y34248D01*
Y33740D01*
X30752Y33486D01*
X31006Y32978D02*
Y32470D01*
Y32724D01*
X29482D01*
X29736Y32978D01*
X29482Y30693D02*
Y31709D01*
X30244D01*
X29990Y31201D01*
Y30947D01*
X30244Y30693D01*
X30752D01*
X31006Y30947D01*
Y31455D01*
X30752Y31709D01*
X-5686Y45777D02*
Y47301D01*
X-4924D01*
X-4670Y47047D01*
Y46031D01*
X-4924Y45777D01*
X-5686D01*
X-4162Y47301D02*
X-3654D01*
X-3908D01*
Y45777D01*
X-4162Y46031D01*
X26635Y54248D02*
Y52724D01*
X25873D01*
X25619Y52978D01*
Y53994D01*
X25873Y54248D01*
X26635D01*
X24096Y52724D02*
X25111D01*
X24096Y53740D01*
Y53994D01*
X24350Y54248D01*
X24858D01*
X25111Y53994D01*
X133777Y50127D02*
Y50635D01*
Y50381D01*
X135047D01*
X135301Y50635D01*
Y50889D01*
X135047Y51143D01*
X135301Y48604D02*
Y49619D01*
X134285Y48604D01*
X134031D01*
X133777Y48858D01*
Y49366D01*
X134031Y49619D01*
X-3777Y9873D02*
Y9365D01*
Y9619D01*
X-5047D01*
X-5301Y9365D01*
Y9111D01*
X-5047Y8857D01*
X-4031Y10381D02*
X-3777Y10634D01*
Y11142D01*
X-4031Y11396D01*
X-4285D01*
X-4539Y11142D01*
Y10888D01*
Y11142D01*
X-4793Y11396D01*
X-5047D01*
X-5301Y11142D01*
Y10634D01*
X-5047Y10381D01*
X-17223Y52127D02*
Y52635D01*
Y52381D01*
X-15953D01*
X-15699Y52635D01*
Y52889D01*
X-15953Y53143D01*
X-15699Y50858D02*
X-17223D01*
X-16461Y51619D01*
Y50604D01*
X129053Y24042D02*
Y24550D01*
Y24296D01*
X130323D01*
X130577Y24550D01*
Y24803D01*
X130323Y25057D01*
X129053Y22518D02*
Y23534D01*
X129815D01*
X129561Y23026D01*
Y22772D01*
X129815Y22518D01*
X130323D01*
X130577Y22772D01*
Y23280D01*
X130323Y23534D01*
X-1212Y27847D02*
Y27339D01*
Y27593D01*
X-2482D01*
X-2736Y27339D01*
Y27086D01*
X-2482Y26832D01*
X-2736Y28355D02*
X-1212D01*
Y29117D01*
X-1466Y29371D01*
X-1974D01*
X-2228Y29117D01*
Y28355D01*
X-2736Y29879D02*
Y30386D01*
Y30133D01*
X-1212D01*
X-1466Y29879D01*
X29291Y50007D02*
Y48484D01*
X28275D01*
X27767D02*
X27259D01*
X27513D01*
Y50007D01*
X27767Y49753D01*
X134866Y13779D02*
X135882D01*
X136136Y13525D01*
Y13017D01*
X135882Y12763D01*
X134866D01*
X134612Y13017D01*
Y13525D01*
X135120Y13271D02*
X134612Y13779D01*
Y13525D02*
X134866Y13779D01*
X134612Y14287D02*
Y14795D01*
Y14541D01*
X136136D01*
X135882Y14287D01*
X39606Y58702D02*
X38082D01*
Y57940D01*
X38336Y57686D01*
X38844D01*
X39098Y57940D01*
Y58702D01*
Y58194D02*
X39606Y57686D01*
Y57178D02*
Y56670D01*
Y56924D01*
X38082D01*
X38336Y57178D01*
X15784Y59508D02*
X14260D01*
Y58746D01*
X14514Y58492D01*
X15022D01*
X15276Y58746D01*
Y59508D01*
Y59000D02*
X15784Y58492D01*
Y56969D02*
Y57985D01*
X14768Y56969D01*
X14514D01*
X14260Y57223D01*
Y57731D01*
X14514Y57985D01*
X52196Y11438D02*
X50672D01*
Y10677D01*
X50926Y10423D01*
X51434D01*
X51688Y10677D01*
Y11438D01*
Y10931D02*
X52196Y10423D01*
X50926Y9915D02*
X50672Y9661D01*
Y9153D01*
X50926Y8899D01*
X51180D01*
X51434Y9153D01*
Y9407D01*
Y9153D01*
X51688Y8899D01*
X51942D01*
X52196Y9153D01*
Y9661D01*
X51942Y9915D01*
X12192Y-2616D02*
Y-4140D01*
X12954D01*
X13208Y-3886D01*
Y-3378D01*
X12954Y-3124D01*
X12192D01*
X12700D02*
X13208Y-2616D01*
X14477D02*
Y-4140D01*
X13716Y-3378D01*
X14731D01*
X1606Y57202D02*
X82D01*
Y56440D01*
X336Y56186D01*
X844D01*
X1098Y56440D01*
Y57202D01*
Y56694D02*
X1606Y56186D01*
X82Y54663D02*
Y55678D01*
X844D01*
X590Y55170D01*
Y54917D01*
X844Y54663D01*
X1352D01*
X1606Y54917D01*
Y55424D01*
X1352Y55678D01*
X4806Y57302D02*
X3282D01*
Y56540D01*
X3536Y56286D01*
X4044D01*
X4298Y56540D01*
Y57302D01*
Y56794D02*
X4806Y56286D01*
X3282Y54763D02*
X3536Y55270D01*
X4044Y55778D01*
X4552D01*
X4806Y55524D01*
Y55017D01*
X4552Y54763D01*
X4298D01*
X4044Y55017D01*
Y55778D01*
X45302Y26594D02*
Y28118D01*
X44540D01*
X44286Y27864D01*
Y27356D01*
X44540Y27102D01*
X45302D01*
X44794D02*
X44286Y26594D01*
X43778Y28118D02*
X42763D01*
Y27864D01*
X43778Y26848D01*
Y26594D01*
X45302Y23794D02*
Y25318D01*
X44540D01*
X44286Y25064D01*
Y24556D01*
X44540Y24302D01*
X45302D01*
X44794D02*
X44286Y23794D01*
X43778Y25064D02*
X43524Y25318D01*
X43017D01*
X42763Y25064D01*
Y24810D01*
X43017Y24556D01*
X42763Y24302D01*
Y24048D01*
X43017Y23794D01*
X43524D01*
X43778Y24048D01*
Y24302D01*
X43524Y24556D01*
X43778Y24810D01*
Y25064D01*
X43524Y24556D02*
X43017D01*
X126898Y5306D02*
Y3782D01*
X127660D01*
X127914Y4036D01*
Y4544D01*
X127660Y4798D01*
X126898D01*
X127406D02*
X127914Y5306D01*
X128422Y5052D02*
X128676Y5306D01*
X129183D01*
X129437Y5052D01*
Y4036D01*
X129183Y3782D01*
X128676D01*
X128422Y4036D01*
Y4290D01*
X128676Y4544D01*
X129437D01*
X43261Y70899D02*
X43515Y71153D01*
X44023D01*
X44277Y70899D01*
Y70645D01*
X44023Y70391D01*
X43515D01*
X43261Y70137D01*
Y69883D01*
X43515Y69629D01*
X44023D01*
X44277Y69883D01*
X41737Y71153D02*
X42245Y70899D01*
X42753Y70391D01*
Y69883D01*
X42499Y69629D01*
X41991D01*
X41737Y69883D01*
Y70137D01*
X41991Y70391D01*
X42753D01*
X21562Y50509D02*
X20293D01*
X20039Y50763D01*
Y51271D01*
X20293Y51525D01*
X21562D01*
X20039Y52033D02*
Y52541D01*
Y52287D01*
X21562D01*
X21308Y52033D01*
X53791Y28862D02*
Y27593D01*
X53537Y27339D01*
X53029D01*
X52775Y27593D01*
Y28862D01*
X51251Y27339D02*
X52267D01*
X51251Y28354D01*
Y28608D01*
X51505Y28862D01*
X52013D01*
X52267Y28608D01*
X20131Y23808D02*
X21401D01*
X21655Y23554D01*
Y23046D01*
X21401Y22792D01*
X20131D01*
X20385Y22285D02*
X20131Y22031D01*
Y21523D01*
X20385Y21269D01*
X20639D01*
X20893Y21523D01*
Y21777D01*
Y21523D01*
X21147Y21269D01*
X21401D01*
X21655Y21523D01*
Y22031D01*
X21401Y22285D01*
X563Y9238D02*
Y10507D01*
X817Y10761D01*
X1325D01*
X1579Y10507D01*
Y9238D01*
X2849Y10761D02*
Y9238D01*
X2087Y10000D01*
X3103D01*
X69454Y20936D02*
X69200D01*
X68692Y21444D01*
X69200Y21952D01*
X69454D01*
X68692Y21444D02*
X67930D01*
Y22460D02*
Y22968D01*
Y22714D01*
X69454D01*
X69200Y22460D01*
X27962Y22098D02*
Y22352D01*
X28469Y22860D01*
X28977Y22352D01*
Y22098D01*
X28469Y22860D02*
Y23622D01*
X30501D02*
X29485D01*
X30501Y22606D01*
Y22352D01*
X30247Y22098D01*
X29739D01*
X29485Y22352D01*
D77*
X8540Y41000D02*
G03*
X8540Y41000I-5080J0D01*
G01*
X38080Y38700D02*
G03*
X38080Y41300I0J1300D01*
G01*
X33000D02*
G03*
X33000Y38700I0J-1300D01*
G01*
X16635Y54358D02*
G03*
X16635Y53723I0J-317D01*
G01*
X49943Y23935D02*
G03*
X50577Y23935I317J0D01*
G01*
X6218Y14165D02*
G03*
X5582Y14165I-317J0D01*
G01*
X38080Y49460D02*
G03*
X38080Y49460I-5080J0D01*
G01*
X110500Y56150D02*
X111000D01*
X110000Y56650D02*
Y59350D01*
X110500Y59850D02*
X111500D01*
X112000Y56650D02*
Y59350D01*
X111000Y56150D02*
X111500D01*
X110500Y42150D02*
X111000D01*
X110000Y42650D02*
X110000Y45350D01*
X110500Y45850D02*
X111500D01*
X112000Y42650D02*
Y45350D01*
X111000Y42150D02*
X111500D01*
X110500Y28150D02*
X111000D01*
X110000Y31350D02*
X110000Y28650D01*
X110500Y31850D02*
X111500D01*
X112000Y28650D02*
Y31350D01*
X111000Y28150D02*
X111500D01*
X110500Y14150D02*
X111000D01*
X110000Y14650D02*
Y17350D01*
X110500Y17850D02*
X111500D01*
X112000Y17350D02*
X112000Y14650D01*
X111000Y14150D02*
X111500D01*
X110500Y150D02*
X111000D01*
X110000Y650D02*
Y3350D01*
X110500Y3850D02*
X111500D01*
X112000Y3350D02*
X112000Y650D01*
X111000Y150D02*
X111500D01*
X41000Y58850D02*
X41500D01*
X42000Y55650D02*
Y58350D01*
X40500Y55150D02*
X41500D01*
X40000Y58350D02*
X40000Y55650D01*
X40500Y58850D02*
X41000D01*
X5492Y42900D02*
X6508D01*
X6000Y42392D02*
Y43408D01*
X33000Y41300D02*
X38080Y41300D01*
X33000Y38700D02*
X38080D01*
X-2000Y16350D02*
X-1500D01*
X-1000Y13150D02*
X-1000Y15850D01*
X-2500Y12650D02*
X-1500D01*
X-3000Y13150D02*
Y15850D01*
X-2500Y16350D02*
X-2000D01*
X4450Y11300D02*
Y11800D01*
X4950Y12300D02*
X7650Y12300D01*
X8150Y10800D02*
X8150Y11800D01*
X4950Y10300D02*
X7650D01*
X4450Y10800D02*
Y11300D01*
X-2400Y21650D02*
X-1900Y21650D01*
X-2900Y24850D02*
X-2900Y22150D01*
X-2400Y25350D02*
X-1400D01*
X-900Y22150D02*
Y24850D01*
X-1900Y21650D02*
X-1400D01*
X-1900Y20950D02*
X-1400D01*
X-900Y17750D02*
X-900Y20450D01*
X-2400Y17250D02*
X-1400D01*
X-2900Y17750D02*
Y20450D01*
X-2400Y20950D02*
X-1900Y20950D01*
X30300Y34850D02*
X30800D01*
X31300Y31650D02*
X31300Y34350D01*
X29800Y31150D02*
X30800D01*
X29300Y31650D02*
Y34350D01*
X29800Y34850D02*
X30300D01*
X35400Y34650D02*
X35900D01*
X36400Y34150D02*
X36400Y31450D01*
X34900Y30950D02*
X35900D01*
X34400Y31450D02*
X34400Y34150D01*
X34900Y34650D02*
X35400D01*
X825Y52000D02*
X830Y50700D01*
X-3185D02*
X830D01*
X-3185D02*
Y53300D01*
X825D01*
Y52000D02*
Y53300D01*
X168Y50700D02*
Y53300D01*
X126400Y16700D02*
X131200D01*
Y12600D02*
Y16700D01*
X126400Y12600D02*
Y16700D01*
Y12600D02*
X131200D01*
X44000Y58850D02*
X44500D01*
X45000Y55650D02*
Y58350D01*
X43500Y55150D02*
X44500D01*
X43000Y58350D02*
X43000Y55650D01*
X43500Y58850D02*
X44000D01*
X6000Y57350D02*
X6500D01*
X7000Y56850D02*
X7000Y54150D01*
X5500Y53650D02*
X6500D01*
X5000Y54150D02*
Y56850D01*
X5500Y57350D02*
X6000D01*
X9200Y57450D02*
X9700D01*
X10200Y56950D02*
X10200Y54250D01*
X8700Y53750D02*
X9700D01*
X8200Y56950D02*
X8200Y54250D01*
X8700Y57450D02*
X9200D01*
X45450Y21700D02*
Y22200D01*
X42250Y21200D02*
X44950D01*
X41750Y21700D02*
Y22700D01*
X42250Y23200D02*
X44950D01*
X45450Y22200D02*
Y22700D01*
Y18900D02*
Y19400D01*
X42250Y18400D02*
X44950D01*
X41750Y18900D02*
Y19900D01*
X42250Y20400D02*
X44950D01*
X45450Y19400D02*
Y19900D01*
X126750Y9700D02*
Y10200D01*
X127250Y10700D02*
X129950D01*
X130450Y9200D02*
Y10200D01*
X127250Y8700D02*
X129950D01*
X126750Y9200D02*
Y9700D01*
X11555Y53585D02*
X16635D01*
X11555Y54495D02*
X11555Y53585D01*
X11555Y54495D02*
X16635D01*
X16635Y54358D02*
X16635Y54495D01*
Y53585D02*
X16635Y53722D01*
X50715Y18855D02*
Y23935D01*
X49805Y18855D02*
X50715D01*
X49805D02*
Y23935D01*
X49943D01*
X50577D02*
X50715D01*
X28270Y22015D02*
X36415D01*
Y12585D02*
Y22015D01*
X26985Y12585D02*
X36415Y12585D01*
X26985Y12585D02*
Y20730D01*
X28270Y22015D01*
X3135Y14165D02*
X5582Y14165D01*
X6218Y14165D02*
X8665Y14165D01*
X8665Y24325D01*
X3135D02*
X8665D01*
X3135D02*
X3135Y14165D01*
X31100Y51492D02*
Y52508D01*
X30592Y52000D02*
X31608D01*
D78*
X56920Y11540D02*
X67080D01*
X56920Y3920D02*
Y11540D01*
X55650Y3920D02*
X56920Y3920D01*
X55650Y1380D02*
Y3920D01*
Y1380D02*
X67080D01*
Y11540D01*
X24222Y46730D02*
Y49270D01*
X17618Y46730D02*
X24222D01*
X17618D02*
Y49270D01*
X24222Y49270D01*
X18888Y46730D02*
Y49270D01*
X24222Y48000D02*
X24984D01*
X16856D02*
X17618D01*
X-11270Y29270D02*
X-8730Y29270D01*
X-8730Y26730D01*
X-6190Y26730D02*
Y39430D01*
X-11270Y39430D02*
X-6190Y39430D01*
X-11270Y39430D02*
X-11270Y26730D01*
X-6190D01*
X19238Y52650D02*
X20000Y52650D01*
X19238Y57730D02*
X19238Y52650D01*
X19238Y57730D02*
X20762Y57730D01*
X20762Y52650D01*
X20000Y52650D02*
X20762Y52650D01*
X20000Y57730D02*
Y57959D01*
X20000Y52421D02*
Y52650D01*
X19050Y1600D02*
X19050Y838D01*
X13970D02*
X19050D01*
X13970D02*
X13970Y2362D01*
X19050D01*
Y1600D02*
Y2362D01*
X13741Y1600D02*
X13970D01*
X19050Y1600D02*
X19279Y1600D01*
X27860Y27076D02*
Y30124D01*
X38020D01*
Y27076D02*
Y30124D01*
X27860Y27076D02*
X38020D01*
D79*
X29300Y40000D02*
Y41000D01*
X25300Y45000D02*
X29300Y41000D01*
X18300Y45000D02*
X25300D01*
X14300Y41000D02*
X18300Y45000D01*
X14300Y39000D02*
Y41000D01*
Y39000D02*
X18300Y35000D01*
X25300D01*
X29300Y39000D01*
Y40000D01*
M02*
