%FSLAX43Y43*%
%MOMM*%
G71*
G01*
G75*
G04 Layer_Color=128*
%ADD10C,0.348*%
%ADD11C,0.599*%
%ADD12C,0.350*%
%ADD13C,0.600*%
%ADD14C,2.000*%
%ADD15C,2.500*%
%ADD16C,1.800*%
%ADD17R,1.800X1.800*%
%ADD18C,3.000*%
%ADD19R,1.700X1.700*%
%ADD20C,1.700*%
%ADD21C,1.600*%
%ADD22R,1.900X1.900*%
%ADD23C,1.900*%
%ADD24R,1.700X1.700*%
%ADD25R,1.800X1.800*%
%ADD26R,2.000X2.000*%
%ADD27C,1.500*%
%ADD28C,1.400*%
%ADD29C,1.575*%
%ADD30C,1.100*%
%ADD31C,1.100*%
%ADD32R,1.600X1.300*%
%ADD33R,1.300X1.600*%
%ADD34R,1.600X1.200*%
%ADD35O,0.750X2.500*%
%ADD36R,0.750X2.500*%
%ADD37O,2.500X0.750*%
%ADD38R,2.500X0.750*%
%ADD39R,0.500X1.500*%
%ADD40R,1.500X0.500*%
%ADD41O,0.500X1.500*%
%ADD42O,2.000X0.750*%
%ADD43R,2.000X0.750*%
%ADD44C,0.381*%
%ADD45C,0.500*%
%ADD46C,0.254*%
%ADD47C,0.127*%
%ADD48C,0.420*%
%ADD49C,2.203*%
%ADD50C,2.703*%
%ADD51C,2.003*%
%ADD52R,2.003X2.003*%
%ADD53C,3.203*%
%ADD54R,1.903X1.903*%
%ADD55C,1.903*%
%ADD56C,1.803*%
%ADD57R,2.103X2.103*%
%ADD58C,2.103*%
%ADD59R,1.903X1.903*%
%ADD60R,2.003X2.003*%
%ADD61R,2.203X2.203*%
%ADD62C,1.703*%
%ADD63C,1.603*%
%ADD64C,1.778*%
%ADD65R,1.803X1.503*%
%ADD66R,1.503X1.803*%
%ADD67R,1.803X1.403*%
%ADD68O,0.953X2.703*%
%ADD69R,0.953X2.703*%
%ADD70O,2.703X0.953*%
%ADD71R,2.703X0.953*%
%ADD72R,0.703X1.703*%
%ADD73R,1.703X0.703*%
%ADD74O,0.703X1.703*%
%ADD75O,2.203X0.953*%
%ADD76R,2.203X0.953*%
D32*
X111000Y59000D02*
D03*
Y57000D02*
D03*
Y45000D02*
D03*
Y43000D02*
D03*
Y31000D02*
D03*
Y29000D02*
D03*
Y17000D02*
D03*
Y15000D02*
D03*
Y3000D02*
D03*
Y1000D02*
D03*
X41000Y58000D02*
D03*
Y56000D02*
D03*
X-2000Y13500D02*
D03*
Y15500D02*
D03*
X-1900Y22500D02*
D03*
Y24500D02*
D03*
Y20100D02*
D03*
X-1900Y18100D02*
D03*
X30300Y32000D02*
D03*
Y34000D02*
D03*
X35400Y31800D02*
D03*
Y33800D02*
D03*
X44000Y56000D02*
D03*
Y58000D02*
D03*
X6000Y56500D02*
D03*
Y54500D02*
D03*
X9200Y56600D02*
D03*
X9200Y54600D02*
D03*
D33*
X7300Y11300D02*
D03*
X5300D02*
D03*
X42600Y22200D02*
D03*
X44600D02*
D03*
X42600Y19400D02*
D03*
X44600D02*
D03*
X129600Y9700D02*
D03*
X127600D02*
D03*
D34*
X127500Y13500D02*
D03*
X130000Y14650D02*
D03*
X127500Y15800D02*
D03*
D35*
X13460Y56580D02*
D03*
X14730Y51500D02*
D03*
X16000Y56580D02*
D03*
X14730Y56580D02*
D03*
X12190Y56580D02*
D03*
X13460Y51500D02*
D03*
X12190Y51500D02*
D03*
D36*
X16000Y51500D02*
D03*
D37*
X47720Y23300D02*
D03*
Y19490D02*
D03*
Y20760D02*
D03*
X52800Y22030D02*
D03*
Y20760D02*
D03*
Y19490D02*
D03*
X47720Y22030D02*
D03*
D38*
X52800Y23300D02*
D03*
D39*
X33300Y23300D02*
D03*
X32500D02*
D03*
X30900Y23300D02*
D03*
X30900Y11300D02*
D03*
X32500D02*
D03*
X34900Y23300D02*
D03*
X29300Y23300D02*
D03*
X35700Y23300D02*
D03*
X34100Y23300D02*
D03*
X30100D02*
D03*
X28500D02*
D03*
X31700Y23300D02*
D03*
Y11300D02*
D03*
X33300Y11300D02*
D03*
X34100D02*
D03*
X34900D02*
D03*
X35700Y11300D02*
D03*
X29300Y11300D02*
D03*
X30100Y11300D02*
D03*
X27700D02*
D03*
X28500Y11300D02*
D03*
D40*
X25700Y16500D02*
D03*
X37700Y17300D02*
D03*
Y21300D02*
D03*
X25700Y18900D02*
D03*
X25700Y18100D02*
D03*
X37700Y19700D02*
D03*
X25700Y17300D02*
D03*
X37700Y16500D02*
D03*
Y18100D02*
D03*
Y18900D02*
D03*
X37700Y13300D02*
D03*
X37700Y14100D02*
D03*
X37700Y14900D02*
D03*
X37700Y15700D02*
D03*
Y20500D02*
D03*
X25700Y13300D02*
D03*
X25700Y14100D02*
D03*
Y14900D02*
D03*
Y15700D02*
D03*
Y19700D02*
D03*
X25700Y20500D02*
D03*
X25700Y21300D02*
D03*
D41*
X27700Y23300D02*
D03*
D42*
X10500Y14800D02*
D03*
X10500Y22420D02*
D03*
X10500Y21150D02*
D03*
Y23690D02*
D03*
X10500Y19880D02*
D03*
Y18610D02*
D03*
X1300Y23690D02*
D03*
Y21150D02*
D03*
X1300Y19880D02*
D03*
Y18610D02*
D03*
Y22420D02*
D03*
X10500Y17340D02*
D03*
X1300Y16070D02*
D03*
X1300Y17340D02*
D03*
X10500Y16070D02*
D03*
D43*
X1300Y14800D02*
D03*
M02*
