%FSTAX23Y23*%
%MOIN*%
%SFA1B1*%

%IPPOS*%
%ADD14C,0.078740*%
%ADD15C,0.098425*%
%ADD16C,0.070866*%
%ADD17R,0.070866X0.070866*%
%ADD18C,0.118110*%
%ADD19R,0.066929X0.066929*%
%ADD20C,0.066929*%
%ADD21C,0.062992*%
%ADD22R,0.074803X0.074803*%
%ADD23C,0.074803*%
%ADD24R,0.066929X0.066929*%
%ADD25R,0.070866X0.070866*%
%ADD26R,0.078740X0.078740*%
%ADD27C,0.059055*%
%ADD28C,0.055118*%
%ADD29C,0.062008*%
%LNkradac270315-1*%
%LPD*%
G54D14*
X00245Y-00119D03*
X0371D03*
X00245Y02439D03*
X0371D03*
X02759Y01461D03*
Y01561D03*
X02019Y01511D03*
X05511Y00605D03*
X01714Y0248D03*
X01514D03*
G54D15*
X04277Y01632D03*
X04777D03*
X04277Y01081D03*
X04777D03*
X04277Y00529D03*
X04777D03*
X04277Y-00021D03*
X04777D03*
X04277Y01832D03*
X04777D03*
X04277Y01281D03*
X04777D03*
X04277Y00729D03*
X04777D03*
X04277Y00178D03*
X04777D03*
X01114Y01574D03*
X00614D03*
X04777Y02383D03*
X04277D03*
X04777Y02183D03*
X04277D03*
G54D16*
X01198Y-00118D03*
X01098D03*
X01998D03*
X01898D03*
X01798D03*
X01698D03*
X01598D03*
X01498D03*
X01398D03*
X01298D03*
X02298D03*
X02098D03*
X00698D03*
X00798D03*
X00998D03*
X02198D03*
X02498D03*
X00898D03*
X02398D03*
X0244Y00354D03*
X0234Y00254D03*
X0244Y00154D03*
X00623Y01889D03*
X-00433Y01947D03*
X-00293Y01302D03*
X-00393D03*
X-00293Y01102D03*
Y01402D03*
X-00393D03*
X-00293Y01202D03*
X-00393D03*
Y01502D03*
X-00293D03*
G54D17*
X02598Y-00118D03*
X01023Y01889D03*
G54D18*
X0Y0D03*
Y02362D03*
X05118D03*
Y0D03*
G54D19*
X00236Y01614D03*
G54D20*
X00036Y01614D03*
X05511Y01868D03*
Y01768D03*
Y01668D03*
Y01568D03*
Y01468D03*
X-00393Y00593D03*
Y00793D03*
Y00693D03*
Y00493D03*
Y00893D03*
X01299Y01847D03*
G54D21*
X01299Y01574D03*
X01499D03*
G54D22*
X-00196Y02047D03*
G54D23*
X00103Y02047D03*
G54D24*
X05511Y01968D03*
X-00393Y00393D03*
X01299Y02047D03*
G54D25*
X-00433Y02047D03*
X-00393Y01102D03*
G54D26*
X05511Y00905D03*
G54D27*
X00787Y02322D03*
Y02022D03*
X005Y00062D03*
X008D03*
G54D28*
X02224Y00858D03*
Y00937D03*
G54D29*
X01396Y01125D03*
X01196D03*
M02*