%FSTAX23Y23*%
%MOIN*%
%SFA1B1*%

%IPPOS*%
%ADD9500C,0.023622*%
%ADD9501C,0.027559*%
%ADD9502C,0.031496*%
%ADD9503C,0.035433*%
%ADD9504C,0.039370*%
%ADD9505C,0.043307*%
%ADD9506C,0.047244*%
%ADD9507C,0.051181*%
%ADD9508C,0.118110*%
%ADD9509C,0.137795*%
%LNkradac270315-1*%
%LPD*%
G54D9500*
X00952Y0046D03*
X01089Y00382D03*
X01125Y00614D03*
X01089Y00662D03*
X01138Y00742D03*
X01209D03*
X01289Y00722D03*
X01389Y00982D03*
X01349Y01042D03*
X01449Y01182D03*
X01669Y01282D03*
X01769Y00942D03*
X01708Y00701D03*
X01659Y00262D03*
X02269Y-00017D03*
X00569Y-00117D03*
X00609Y00602D03*
X00917Y00582D03*
X00929Y00523D03*
X00349Y00482D03*
X00329Y00702D03*
X00309Y00882D03*
X-0021Y00902D03*
X00569Y01182D03*
X00709Y01042D03*
G54D9501*
X02224Y00858D03*
Y00937D03*
G54D9502*
X01196Y01125D03*
X01396D03*
X008Y00062D03*
X005D03*
X00787Y02022D03*
Y02322D03*
G54D9503*
X00036Y01614D03*
X00236D03*
X01299Y01574D03*
X01499D03*
X01299Y01847D03*
Y02047D03*
G54D9504*
X02598Y-00118D03*
X02498D03*
X02398D03*
X02298D03*
X02198D03*
X02098D03*
X01998D03*
X01898D03*
X01798D03*
X01698D03*
X01598D03*
X01498D03*
X01398D03*
X01298D03*
X01198D03*
X01098D03*
X00998D03*
X0244Y00154D03*
Y00354D03*
X0234Y00254D03*
X00898Y-00118D03*
X00798D03*
X00698D03*
X-00393Y00393D03*
Y00493D03*
Y00593D03*
Y00693D03*
Y00793D03*
Y00893D03*
Y01102D03*
Y01202D03*
X-00293D03*
Y01302D03*
X-00393D03*
X-00293Y01102D03*
Y01402D03*
X-00393D03*
Y01502D03*
X-00293D03*
X-00433Y01947D03*
Y02047D03*
X00623Y01889D03*
X01023D03*
X01514Y0248D03*
X01714D03*
X05511Y01968D03*
Y01868D03*
Y01768D03*
Y01668D03*
Y01568D03*
Y01468D03*
G54D9505*
X05511Y00605D03*
Y00905D03*
X00103Y02047D03*
X-00196D03*
X02019Y01511D03*
X02759Y01461D03*
Y01561D03*
G54D9506*
X04277Y-00021D03*
Y00178D03*
Y00529D03*
Y00729D03*
Y01081D03*
Y01281D03*
X04777D03*
Y01081D03*
Y00729D03*
Y00529D03*
Y00178D03*
Y-00021D03*
Y01632D03*
Y01832D03*
Y02183D03*
Y02383D03*
X04277D03*
Y02183D03*
Y01832D03*
Y01632D03*
G54D9507*
X00614Y01574D03*
X01114D03*
G54D9508*
X0371Y-00119D03*
X00245D03*
Y02439D03*
X0371D03*
G54D9509*
X05118Y0D03*
X0D03*
Y02362D03*
X05118D03*
M02*