%FSTAX23Y23*%
%MOIN*%
%SFA1B1*%

%IPPOS*%
%ADD10C,0.013701*%
%ADD11C,0.023583*%
%ADD12C,0.013780*%
%ADD13C,0.023622*%
%ADD14C,0.078740*%
%ADD15C,0.098425*%
%ADD16C,0.070866*%
%ADD17R,0.070866X0.070866*%
%ADD18C,0.118110*%
%ADD19R,0.066929X0.066929*%
%ADD20C,0.066929*%
%ADD21C,0.062992*%
%ADD22R,0.074803X0.074803*%
%ADD23C,0.074803*%
%ADD24R,0.066929X0.066929*%
%ADD25R,0.070866X0.070866*%
%ADD26R,0.078740X0.078740*%
%ADD27C,0.059055*%
%ADD28C,0.055118*%
%ADD29C,0.062008*%
%ADD30C,0.043307*%
%ADD31C,0.043307*%
%LNkradac270315-1*%
%LPD*%
G54D10*
X04777Y02183D02*
D01*
Y02182D02*
Y02183D01*
Y02182D02*
X04777D01*
X04789Y02194*
X04781Y02202D02*
X04789Y02194D01*
X04777Y-00021D02*
Y-00017D01*
X04277Y-00021D02*
Y-00017D01*
X-00393Y00482D02*
X00349D01*
X-00393D02*
Y00493D01*
Y00602D02*
X00609D01*
X-00393Y00593D02*
Y00602D01*
X01138Y00742D02*
X01198Y00802D01*
X01709*
X01769Y00862*
Y00942*
X04269Y01081D02*
X04277D01*
X-00393Y01302D02*
D01*
Y01302D02*
Y01302D01*
X-0041Y01302D02*
X-00393D01*
X-0045Y01262D02*
X-0041Y01302D01*
X-0045Y01042D02*
Y01262D01*
Y01042D02*
X-0041Y01002D01*
X00189*
X00309Y00882*
X01647Y00762D02*
X01708Y00701D01*
X01249Y00762D02*
X01647D01*
X01229Y00742D02*
X01249Y00762D01*
X01209Y00742D02*
X01229D01*
X00898Y-00118D02*
Y-00117D01*
X00929*
Y-00057*
X00969Y-00017*
X02269*
X01269Y00702D02*
X01289Y00722D01*
X00289Y00682D02*
X00309Y00662D01*
X00289Y00682D02*
Y00862D01*
X00309Y00882*
X00129Y01122D02*
X00269Y00982D01*
X-00293Y01122D02*
X00129D01*
X-00293Y01102D02*
Y01122D01*
X00329Y00702D02*
X00349Y00722D01*
X00569Y01182D02*
X01449D01*
X-00393Y01402D02*
X-0039D01*
X-00293Y01202D02*
D01*
Y01202D02*
Y01202D01*
Y01202D02*
X00209D01*
X00369Y01042*
X00709D02*
X01349D01*
X00769Y02322D02*
Y02322D01*
X00103Y02047D02*
D01*
X00089D02*
X00103D01*
X00089D02*
Y02048D01*
X04277Y00529D02*
D01*
Y00542D02*
X04309D01*
X04289Y01622D02*
Y01632D01*
X04277D02*
X04289D01*
X00269Y00982D02*
X00349D01*
X01389*
X00349Y00722D02*
Y00982D01*
X04269Y02183D02*
X04277D01*
X04269D02*
Y02202D01*
X00369Y01042D02*
X00549D01*
X01299Y02047D02*
Y02055D01*
X00769Y02322D02*
X00787D01*
X00309Y00662D02*
X00566D01*
X01137Y00702D02*
X01269D01*
X04269Y02162D02*
Y02183D01*
X04277Y00529D02*
Y00542D01*
G54D11*
X04277Y00178D02*
D01*
X04289*
Y00179*
X04286Y00182D02*
X04289Y00179D01*
X02589Y-00118D02*
Y-00117D01*
Y-00118D02*
X02598D01*
X04777Y00729D02*
D01*
Y00742*
X04789Y00182D02*
Y00202D01*
X04777Y00182D02*
X04789D01*
X04777Y00178D02*
Y00182D01*
X-00196Y02047D02*
D01*
Y02042D02*
Y02047D01*
X-00433Y02042D02*
X-00196D01*
X-00433D02*
Y02047D01*
X005Y00062D02*
Y00102D01*
X0052Y00122*
X02389D02*
X02489Y00022D01*
Y-00118D02*
Y00022D01*
Y-00118D02*
X02498D01*
X04289Y01282D02*
X04309D01*
X04289Y01281D02*
Y01282D01*
X04277Y01281D02*
X04289D01*
X-0049Y00322D02*
X-0045Y00282D01*
X00169*
X00029Y01614D02*
Y01622D01*
Y01614D02*
X00036D01*
X-00393Y00882D02*
Y00893D01*
X-0041Y00882D02*
X-00393D01*
X-0041D02*
Y00892D01*
X-004Y00902*
X-0021*
X01499Y01574D02*
Y01582D01*
X01509Y02462D02*
X01529D01*
X01509D02*
Y0248D01*
X01514*
X01289Y01847D02*
X01299D01*
X01659Y00262D02*
X01759Y00162D01*
X0244*
Y00154D02*
Y00162D01*
X00169Y00282D02*
X00544Y-00091D01*
X-0049Y00322D02*
Y01334D01*
X01474Y01477D02*
X01669Y01282D01*
X01023Y01889D02*
Y01902D01*
X01499Y01582D02*
X01503D01*
X02011Y01511D02*
X02019D01*
X0052Y00122D02*
X00787D01*
X0107D02*
X02389D01*
X04277Y01832D02*
Y01842D01*
X01529Y02462D02*
X01903Y02089D01*
G54D12*
X00503Y01042D02*
X00712D01*
X00349Y01402D02*
X00569Y01182D01*
X-0039Y01402D02*
X00349D01*
X00566Y00662D02*
X00582D01*
X00622Y00702*
X01137*
X01122Y00618D02*
X01125D01*
X02665Y00653D02*
X04181Y02169D01*
X04269*
X03712Y01614D02*
X04271D01*
X00917Y00586D02*
X01082D01*
X01102Y00566*
X01161*
X012Y00606*
X02704*
X03712Y01614*
X01125Y00614D02*
X01165Y00653D01*
X02665*
X02744Y0057D02*
X03254Y01081D01*
X04269*
X00921Y00527D02*
X00925D01*
X00929Y00531*
X012D02*
X0124Y0057D01*
X00929Y00531D02*
X012D01*
X0124Y0057D02*
X02744D01*
X00948Y00464D02*
X0098Y00496D01*
X01224*
X01263Y00535*
X04277*
X01086Y00381D02*
X01153Y00448D01*
X01236*
X01279Y00492*
X03874*
X04023Y00342*
Y00082D02*
X04127Y-00021D01*
X04277*
X04023Y00082D02*
Y00342D01*
G54D13*
X00544Y-00091D02*
X0057Y-00118D01*
X00698*
X-00003Y01614D02*
X00029D01*
X-00118Y015D02*
X-00003Y01614D01*
X-0049Y01474D02*
X-00464Y015D01*
X-0049Y01334D02*
Y01474D01*
X-00464Y015D02*
X-00118D01*
X00094Y02039D02*
X00649D01*
X00842Y02232*
X01122D02*
X01299Y02055D01*
X00779Y02299D02*
X00842Y02236D01*
Y02232D02*
Y02236D01*
X00779Y02299D02*
Y02326D01*
X00842Y02232D02*
X01122D01*
X01373Y01578D02*
X01474Y01477D01*
X0111Y01578D02*
X01373D01*
X01015Y01889D02*
X01251D01*
X01507Y01641D02*
X01944D01*
X01503Y0157D02*
Y01582D01*
X02011Y01511D02*
Y01574D01*
X01499Y01574D02*
Y01633D01*
X01944Y01641D02*
X02011Y01574D01*
X01944Y01641D02*
X02Y01697D01*
X00826Y0061D02*
X00878Y00662D01*
X01089*
X00826Y00122D02*
Y0061D01*
X00787Y00122D02*
X0107D01*
X04751Y00165D02*
X04771D01*
X04777Y00182D02*
X04796D01*
X0487Y00255*
X04818Y02385D02*
X0487Y02334D01*
X04783Y02385D02*
X04818D01*
X04777Y01832D02*
X04868D01*
X04777Y01282D02*
X04863D01*
X04777Y00729D02*
X04856D01*
X04858Y00728*
X04771Y01838D02*
X04777Y01832D01*
X04277Y01838D02*
X04771D01*
X04868Y01832D02*
X0487Y0183D01*
Y00255D02*
Y02334D01*
X04277Y02383D02*
X04757D01*
X04759Y02385*
X04277Y01281D02*
X04774D01*
X04779Y01275*
X04269Y00722D02*
X04781D01*
X04779Y00723D02*
X04781Y00722D01*
X04277Y00178D02*
X04774D01*
X04771Y00176D02*
X04774Y00178D01*
X04082Y0237D02*
X04283D01*
X03692Y0198D02*
X04082Y0237D01*
X01903Y02089D02*
X02Y01992D01*
Y0198D02*
X03692D01*
X01499Y01633D02*
X01507Y01641D01*
X01251Y01889D02*
X01503Y01637D01*
X02Y01697D02*
Y01992D01*
G54D14*
X00245Y-00119D03*
X0371D03*
X00245Y02439D03*
X0371D03*
X02759Y01461D03*
Y01561D03*
X02019Y01511D03*
X05511Y00605D03*
X01714Y0248D03*
X01514D03*
G54D15*
X04277Y01632D03*
X04777D03*
X04277Y01081D03*
X04777D03*
X04277Y00529D03*
X04777D03*
X04277Y-00021D03*
X04777D03*
X04277Y01832D03*
X04777D03*
X04277Y01281D03*
X04777D03*
X04277Y00729D03*
X04777D03*
X04277Y00178D03*
X04777D03*
X01114Y01574D03*
X00614D03*
X04777Y02383D03*
X04277D03*
X04777Y02183D03*
X04277D03*
G54D16*
X01198Y-00118D03*
X01098D03*
X01998D03*
X01898D03*
X01798D03*
X01698D03*
X01598D03*
X01498D03*
X01398D03*
X01298D03*
X02298D03*
X02098D03*
X00698D03*
X00798D03*
X00998D03*
X02198D03*
X02498D03*
X00898D03*
X02398D03*
X0244Y00354D03*
X0234Y00254D03*
X0244Y00154D03*
X00623Y01889D03*
X-00433Y01947D03*
X-00293Y01302D03*
X-00393D03*
X-00293Y01102D03*
Y01402D03*
X-00393D03*
X-00293Y01202D03*
X-00393D03*
Y01502D03*
X-00293D03*
G54D17*
X02598Y-00118D03*
X01023Y01889D03*
G54D18*
X0Y0D03*
Y02362D03*
X05118D03*
Y0D03*
G54D19*
X00236Y01614D03*
G54D20*
X00036Y01614D03*
X05511Y01868D03*
Y01768D03*
Y01668D03*
Y01568D03*
Y01468D03*
X-00393Y00593D03*
Y00793D03*
Y00693D03*
Y00493D03*
Y00893D03*
X01299Y01847D03*
G54D21*
X01299Y01574D03*
X01499D03*
G54D22*
X-00196Y02047D03*
G54D23*
X00103Y02047D03*
G54D24*
X05511Y01968D03*
X-00393Y00393D03*
X01299Y02047D03*
G54D25*
X-00433Y02047D03*
X-00393Y01102D03*
G54D26*
X05511Y00905D03*
G54D27*
X00787Y02322D03*
Y02022D03*
X005Y00062D03*
X008D03*
G54D28*
X02224Y00858D03*
Y00937D03*
G54D29*
X01396Y01125D03*
X01196D03*
G54D30*
X00569Y-00117D03*
X00349Y00482D03*
X00609Y00602D03*
X01138Y00742D03*
X01769Y00942D03*
X00309Y00882D03*
X01708Y00701D03*
X01209Y00742D03*
X01669Y01282D03*
X02269Y-00017D03*
X01089Y00662D03*
X01289Y00722D03*
X01389Y00982D03*
X00329Y00702D03*
X01449Y01182D03*
X01349Y01042D03*
X-0021Y00902D03*
X01659Y00262D03*
X01089Y00382D03*
G54D31*
X00569Y01182D03*
X00709Y01042D03*
X00917Y00582D03*
X00929Y00523D03*
X00952Y0046D03*
X01125Y00614D03*
M02*