%FSTAX23Y23*%
%MOIN*%
%SFA1B1*%

%IPPOS*%
%ADD48C,0.016535*%
%ADD49C,0.086732*%
%ADD50C,0.106417*%
%ADD51C,0.078858*%
%ADD52R,0.078858X0.078858*%
%ADD53C,0.126102*%
%ADD54R,0.074921X0.074921*%
%ADD55C,0.074921*%
%ADD56C,0.070984*%
%ADD57R,0.082795X0.082795*%
%ADD58C,0.082795*%
%ADD59R,0.074921X0.074921*%
%ADD60R,0.078858X0.078858*%
%ADD61R,0.086732X0.086732*%
%ADD62C,0.067047*%
%ADD63C,0.063110*%
%ADD64C,0.070000*%
%ADD65R,0.070984X0.059173*%
%ADD66R,0.059173X0.070984*%
%ADD67R,0.070984X0.055236*%
%ADD68O,0.037520X0.106417*%
%ADD69R,0.037520X0.106417*%
%ADD70O,0.106417X0.037520*%
%ADD71R,0.106417X0.037520*%
%ADD72R,0.027677X0.067047*%
%ADD73R,0.067047X0.027677*%
%ADD74O,0.027677X0.067047*%
%ADD75O,0.086732X0.037520*%
%ADD76R,0.086732X0.037520*%
%LNkradac270315-1*%
%LPD*%
G54D48*
X-00669Y00078D02*
X-00196D01*
Y02283D02*
Y02637D01*
X-00669Y02283D02*
X-00196D01*
X-00669Y00078D02*
Y02283D01*
X-00196Y-00275D02*
Y00078D01*
Y-00275D02*
X05314D01*
Y00078*
X05787*
Y02283*
X05314D02*
X05787D01*
X05314D02*
Y02637D01*
X-00196D02*
X05314D01*
G54D49*
X00245Y-00119D03*
X0371D03*
X00245Y02439D03*
X0371D03*
X02759Y01461D03*
Y01561D03*
X02019Y01511D03*
X05511Y00605D03*
X01714Y0248D03*
X01514D03*
G54D50*
X04277Y01632D03*
X04777D03*
X04277Y01081D03*
X04777D03*
X04277Y00529D03*
X04777D03*
X04277Y-00021D03*
X04777D03*
X04277Y01832D03*
X04777D03*
X04277Y01281D03*
X04777D03*
X04277Y00729D03*
X04777D03*
X04277Y00178D03*
X04777D03*
X01114Y01574D03*
X00614D03*
X04777Y02383D03*
X04277D03*
X04777Y02183D03*
X04277D03*
G54D51*
X01198Y-00118D03*
X01098D03*
X01998D03*
X01898D03*
X01798D03*
X01698D03*
X01598D03*
X01498D03*
X01398D03*
X01298D03*
X02298D03*
X02098D03*
X00698D03*
X00798D03*
X00998D03*
X02198D03*
X02498D03*
X00898D03*
X02398D03*
X0244Y00354D03*
X0234Y00254D03*
X0244Y00154D03*
X00623Y01889D03*
X-00433Y01947D03*
X-00293Y01302D03*
X-00393D03*
X-00293Y01102D03*
Y01402D03*
X-00393D03*
X-00293Y01202D03*
X-00393D03*
Y01502D03*
X-00293D03*
G54D52*
X02598Y-00118D03*
X01023Y01889D03*
G54D53*
X0Y0D03*
Y02362D03*
X05118D03*
Y0D03*
G54D54*
X00236Y01614D03*
G54D55*
X00036Y01614D03*
X05511Y01868D03*
Y01768D03*
Y01668D03*
Y01568D03*
Y01468D03*
X-00393Y00593D03*
Y00793D03*
Y00693D03*
Y00493D03*
Y00893D03*
X01299Y01847D03*
G54D56*
X01299Y01574D03*
X01499D03*
G54D57*
X-00196Y02047D03*
G54D58*
X00103Y02047D03*
G54D59*
X05511Y01968D03*
X-00393Y00393D03*
X01299Y02047D03*
G54D60*
X-00433Y02047D03*
X-00393Y01102D03*
G54D61*
X05511Y00905D03*
G54D62*
X00787Y02322D03*
Y02022D03*
X005Y00062D03*
X008D03*
G54D63*
X02224Y00858D03*
Y00937D03*
G54D64*
X01396Y01125D03*
X01196D03*
G54D65*
X0437Y02322D03*
Y02244D03*
Y01771D03*
Y01692D03*
Y0122D03*
Y01141D03*
Y00669D03*
Y0059D03*
Y00118D03*
Y00039D03*
X01614Y02283D03*
Y02204D03*
X-00078Y00531D03*
Y0061D03*
X-00074Y00885D03*
Y00964D03*
Y00791D03*
Y00712D03*
X01192Y01259D03*
Y01338D03*
X01393Y01251D03*
Y0133D03*
X01732Y02204D03*
Y02283D03*
X00236Y02224D03*
Y02145D03*
X00362Y02228D03*
Y02149D03*
G54D66*
X00287Y00444D03*
X00208D03*
X01677Y00874D03*
X01755D03*
X01677Y00763D03*
X01755D03*
X05102Y00381D03*
X05023D03*
G54D67*
X05019Y00531D03*
X05118Y00576D03*
X05019Y00622D03*
G54D68*
X00529Y02227D03*
X00579Y02027D03*
X00629Y02227D03*
X00579D03*
X00479D03*
X00529Y02027D03*
X00479D03*
G54D69*
X00629Y02027D03*
G54D70*
X01878Y00917D03*
Y00767D03*
Y00817D03*
X02078Y00867D03*
Y00817D03*
Y00767D03*
X01878Y00867D03*
G54D71*
X02078Y00917D03*
G54D72*
X01311Y00917D03*
X01279D03*
X01216D03*
Y00444D03*
X01279D03*
X01374Y00917D03*
X01153D03*
X01405D03*
X01342D03*
X01185D03*
X01122D03*
X01248D03*
Y00444D03*
X01311D03*
X01342D03*
X01374D03*
X01405D03*
X01153D03*
X01185D03*
X0109D03*
X01122D03*
G54D73*
X01011Y00649D03*
X01484Y00681D03*
Y00838D03*
X01011Y00744D03*
Y00712D03*
X01484Y00775D03*
X01011Y00681D03*
X01484Y00649D03*
Y00712D03*
Y00744D03*
Y00523D03*
Y00555D03*
Y00586D03*
Y00618D03*
Y00807D03*
X01011Y00523D03*
Y00555D03*
Y00586D03*
Y00618D03*
Y00775D03*
Y00807D03*
Y00838D03*
G54D74*
X0109Y00917D03*
G54D75*
X00413Y00582D03*
Y00882D03*
Y00832D03*
Y00932D03*
Y00782D03*
Y00732D03*
X00051Y00932D03*
Y00832D03*
Y00782D03*
Y00732D03*
Y00882D03*
X00413Y00682D03*
X00051Y00632D03*
Y00682D03*
X00413Y00632D03*
G54D76*
X00051Y00582D03*
M02*